<?xml version="1.0" standalone="no"?>
<!DOCTYPE svg PUBLIC "-//W3C//DTD SVG 20010904//EN"
 "http://www.w3.org/TR/2001/REC-SVG-20010904/DTD/svg10.dtd">
<svg version="1.0" xmlns="http://www.w3.org/2000/svg"
 width="1024.000000pt" height="1024.000000pt" viewBox="0 0 1024.000000 1024.000000"
 preserveAspectRatio="xMidYMid meet">

<g transform="translate(0.000000,1024.000000) scale(0.100000,-0.100000)"
fill="#000000" stroke="none">
<path d="M0 5120 l0 -5120 5120 0 5120 0 0 5120 0 5120 -5120 0 -5120 0 0
-5120z m7786 3213 c11 -17 31 -63 43 -101 27 -84 20 -108 -36 -118 -59 -11
-84 4 -120 75 -42 80 -42 104 2 148 44 44 80 42 111 -4z m-166 -65 c0 -6 14
-40 30 -75 17 -34 30 -67 30 -71 0 -5 -12 -15 -27 -22 -55 -25 -268 -102 -288
-103 -17 -2 -25 13 -49 86 -21 64 -27 93 -20 105 6 8 48 26 95 38 46 13 104
30 129 38 55 18 100 20 100 4z m-437 -188 c31 -67 57 -130 57 -141 0 -21 -40
-45 -62 -36 -8 2 -51 60 -97 127 -58 85 -80 125 -73 132 9 9 85 34 112 37 3 1
31 -53 63 -119z m-1698 -25 c108 -28 198 -80 283 -163 92 -91 122 -138 159
-258 l28 -89 3 -1972 c3 -2165 6 -2046 -57 -2175 -72 -147 -213 -271 -373
-325 l-83 -28 -965 0 -965 0 -82 28 c-157 53 -292 166 -359 299 -75 149 -69
-36 -69 2183 0 1909 1 1993 19 2065 51 205 199 351 431 426 l70 23 950 1 c818
0 959 -2 1010 -15z m1481 -82 c115 -142 108 -130 90 -158 -9 -14 -22 -25 -30
-25 -7 0 -44 27 -82 61 -38 34 -82 68 -99 76 -51 26 -56 33 -44 57 21 40 60
86 73 86 8 0 49 -44 92 -97z m832 -95 c27 -30 81 -146 89 -192 7 -47 -12 -91
-52 -116 -39 -24 -78 -26 -115 -3 -33 19 -70 80 -70 115 0 69 76 218 111 218
8 0 25 -10 37 -22z m-967 -94 c60 -53 109 -102 109 -109 0 -7 -8 -23 -18 -35
l-18 -23 -50 44 c-27 24 -80 68 -117 98 -37 30 -67 56 -67 58 0 14 32 63 41
63 6 0 60 -43 120 -96z m-266 -79 c33 -27 117 -90 188 -139 70 -48 127 -92
127 -97 0 -4 -9 -23 -20 -41 -10 -18 -16 -38 -12 -44 4 -6 30 -25 57 -44 73
-49 274 -219 293 -249 15 -22 17 -72 17 -482 l0 -456 -134 -7 c-170 -8 -874
-8 -895 0 -14 5 -16 43 -16 324 0 215 -5 367 -16 471 -8 85 -16 215 -17 290
-2 135 -2 136 28 180 16 24 86 100 156 169 69 69 134 139 144 157 21 36 19 37
100 -32z m685 -1788 l0 -82 -156 0 -156 0 6 35 c3 19 6 55 6 80 l0 45 150 2
150 1 0 -81z m-1021 -64 c55 -26 136 -115 173 -190 l33 -67 -1 -166 c-1 -91
-5 -446 -9 -790 -8 -705 -4 -798 41 -881 116 -212 404 -209 505 5 l29 61 0
928 0 927 105 0 105 0 0 -933 c0 -1018 1 -992 -58 -1100 -55 -101 -227 -216
-354 -237 -63 -10 -147 0 -218 25 -109 38 -241 148 -292 242 -62 114 -61 97
-60 898 1 472 6 766 13 831 14 119 10 141 -32 189 -35 39 -49 38 -49 -5 0 -41
-10 -60 -31 -60 -18 0 -19 10 -19 176 l0 177 42 -7 c23 -4 58 -14 77 -23z
m167 -3008 c66 -19 156 -86 193 -144 61 -95 73 -143 77 -301 2 -80 6 -164 9
-186 l4 -42 -2120 3 -2119 2 -6 157 c-7 202 7 278 70 363 59 80 129 131 217
157 26 8 565 10 1830 8 1531 -2 1801 -5 1845 -17z"/>
<path d="M3815 7801 c-125 -7 -202 -26 -266 -66 -55 -35 -126 -120 -151 -183
-22 -55 -23 -70 -26 -401 -3 -323 -2 -347 17 -411 40 -130 153 -245 278 -281
39 -11 188 -14 828 -14 l780 0 65 31 c79 38 117 69 175 144 93 120 103 193 88
631 l-9 246 -31 64 c-67 136 -178 212 -335 230 -102 11 -1248 20 -1413 10z
m1457 -199 c44 -28 96 -89 129 -152 23 -43 24 -55 27 -305 2 -170 0 -278 -8
-313 -16 -73 -71 -139 -151 -182 l-64 -35 -705 0 -705 0 -56 26 c-70 33 -132
88 -167 148 l-27 46 0 295 c0 291 0 296 24 344 30 60 75 106 132 134 l44 22
745 -2 745 -3 37 -23z"/>
<path d="M3742 7460 c-23 -16 -46 -38 -51 -49 -7 -12 -11 -118 -11 -284 0
-258 1 -265 23 -298 12 -18 36 -43 53 -54 29 -20 43 -20 737 -19 l708 1 35 34
c61 58 64 72 64 341 0 271 -2 278 -73 332 l-34 26 -705 0 -705 0 -41 -30z"/>
<path d="M5065 6146 c-68 -17 -103 -37 -151 -88 -54 -56 -73 -95 -80 -166 -8
-76 14 -153 61 -215 118 -154 342 -145 466 19 59 78 75 140 59 218 -33 161
-200 270 -355 232z m114 -161 c51 -26 81 -71 81 -121 0 -39 -5 -50 -44 -88
-24 -24 -57 -47 -75 -51 -44 -9 -108 28 -134 78 -17 34 -18 43 -7 80 14 48 32
72 75 98 36 23 67 24 104 4z"/>
<path d="M3757 6133 c-60 -20 -144 -94 -168 -148 -29 -62 -26 -175 7 -245 48
-104 123 -159 230 -168 86 -6 150 17 219 79 31 29 65 73 81 105 23 47 26 63
22 122 -6 80 -30 131 -90 189 -82 80 -189 103 -301 66z m169 -152 c45 -28 71
-98 55 -151 -15 -52 -73 -100 -121 -100 -97 0 -167 108 -122 190 40 74 123
100 188 61z"/>
<path d="M4421 5921 c-41 -39 -42 -82 -2 -122 41 -41 90 -40 125 2 30 35 32
58 11 99 -30 57 -86 66 -134 21z"/>
<path d="M4108 5130 l-296 -5 -26 -24 c-36 -34 -34 -72 5 -105 l31 -26 669 0
669 0 31 28 c40 36 42 74 5 111 l-26 26 -383 0 c-210 1 -516 -2 -679 -5z"/>
<path d="M5646 4999 l-26 -20 0 -688 0 -688 -31 -61 c-36 -72 -89 -122 -188
-177 -70 -38 -72 -40 -69 -74 l3 -36 63 2 c128 3 241 86 313 229 l44 87 3 700
3 700 -22 23 c-28 29 -58 30 -93 3z"/>
<path d="M4459 4790 c-628 -5 -658 -6 -678 -24 -32 -29 -29 -88 5 -115 26 -21
34 -21 701 -21 l675 0 29 29 c17 18 29 40 29 56 0 28 -40 75 -64 75 -8 0 -20
1 -28 3 -7 1 -308 0 -669 -3z"/>
<path d="M3943 4443 c-139 -3 -142 -4 -162 -30 -31 -38 -27 -76 10 -107 l31
-26 664 0 c729 0 698 -3 724 60 15 35 6 66 -24 86 -20 12 -103 15 -562 17
-297 1 -603 1 -681 0z"/>
<path d="M3201 3807 c-17 -35 -21 -63 -22 -141 0 -90 2 -100 35 -170 26 -53
51 -87 87 -119 114 -100 278 -150 337 -104 26 21 8 39 -85 83 -176 84 -281
220 -307 400 -7 46 -15 87 -18 90 -3 3 -15 -15 -27 -39z"/>
<path d="M6460 7503 c-24 -8 -150 -135 -167 -167 -19 -37 -34 -140 -26 -188 5
-35 8 -38 38 -38 36 0 45 15 45 82 0 54 32 131 82 196 55 72 67 93 61 109 -5
14 -9 15 -33 6z"/>
<path d="M6362 7026 c-4 -6 -8 -170 -9 -364 l-2 -354 339 4 c186 1 340 5 343
8 2 3 2 159 -1 348 -4 303 -6 344 -21 351 -25 13 -641 19 -649 7z m298 -141
c54 -28 88 -80 120 -187 18 -57 50 -136 72 -176 22 -40 37 -79 34 -87 -4 -10
-21 -15 -55 -15 -42 0 -53 4 -71 27 -32 42 -87 161 -104 228 -18 70 -38 89
-111 110 -57 17 -65 28 -65 94 l0 34 77 -7 c42 -4 88 -13 103 -21z"/>
<path d="M2731 2663 c-67 -34 -88 -62 -101 -132 -11 -57 -13 -151 -5 -173 4
-11 314 -12 1817 -8 1714 5 1811 6 1822 23 14 22 -9 66 -44 84 -20 10 -371 12
-1728 11 l-1702 -3 0 35 c1 71 -4 70 292 70 146 0 461 3 701 7 352 5 437 9
437 19 0 15 -9 17 -110 35 -36 6 -71 16 -79 22 -10 9 -179 14 -610 18 -328 3
-605 9 -616 13 -13 4 -38 -2 -74 -21z"/>
<path d="M6120 2681 c0 -4 27 -25 59 -45 66 -41 118 -94 127 -132 4 -14 4 -52
1 -85 l-5 -59 53 0 c29 0 67 -3 85 -7 l33 -6 -5 91 c-4 74 -10 99 -31 135 -29
50 -84 90 -142 106 -48 13 -175 15 -175 2z"/>
</g>
</svg>
