<svg xmlns="http://www.w3.org/2000/svg" width="512" height="512" viewBox="0 0 512 512" version="1.1"><path d="M 204.500 93.691 C 201.017 94.421, 194.661 99.406, 191.526 103.867 L 188.500 108.172 188 243.336 L 187.500 378.500 185.250 378.820 C 183.121 379.122, 182.999 378.799, 182.990 372.820 C 182.984 369.344, 182.700 337.616, 182.358 302.313 C 182.017 267.010, 182.055 237.310, 182.442 236.313 C 182.829 235.316, 183.138 220.550, 183.128 203.500 C 183.106 163.135, 183.235 166.107, 181.608 168.250 C 180.877 169.213, 179.302 170, 178.108 170 C 174.357 170, 169.590 172.564, 166.234 176.386 L 163 180.070 163 199.500 C 163 217.686, 163.124 218.996, 164.934 219.965 C 165.998 220.534, 168.023 221, 169.434 221 C 172.914 221, 172.790 223.610, 169.066 228.750 C 165.989 232.997, 166.038 234, 169.322 234 C 171.258 234, 171.262 234.053, 169.468 236.035 C 168.455 237.155, 166.962 237.816, 166.150 237.504 C 164.580 236.902, 159 241.580, 159 243.499 C 159 244.118, 160.257 245.553, 161.793 246.689 L 164.585 248.753 167.469 246.273 C 169.915 244.169, 170.174 243.508, 169.176 241.910 C 167.517 239.253, 167.716 238.521, 169.663 240.128 C 170.906 241.154, 171.427 241.197, 171.729 240.300 C 171.951 239.640, 173.039 237.948, 174.147 236.541 C 176.433 233.635, 178.586 234.036, 176.965 237.066 C 175.761 239.314, 175.191 255.384, 174.552 305 C 174.051 343.964, 173.643 347.052, 167.960 354.896 C 165.344 358.508, 164.452 359.074, 161.799 358.810 C 152.547 357.886, 149.927 338.141, 153.496 296.235 C 155.628 271.207, 157.738 259.717, 161.428 253.050 C 162.586 250.959, 162.564 250.264, 161.277 248.300 C 160.448 247.035, 159.230 246, 158.570 246 C 157.213 246, 154.639 250.955, 151.899 258.843 C 146.455 274.517, 142.857 335.351, 146.537 349.482 C 151.041 366.774, 163.063 371.258, 172.836 359.292 L 175.933 355.500 175.966 367.250 L 176 379 169.083 379 L 162.166 379 161.083 384.049 C 160.487 386.826, 160 389.301, 160 389.549 C 160 389.797, 199.552 390, 247.892 390 L 335.785 390 334.623 384.750 L 333.461 379.500 325.645 379 L 317.828 378.500 317.664 307.250 C 317.543 254.731, 317.798 236, 318.633 236 C 320.739 236, 320.652 235.173, 323.928 286 C 324.985 302.389, 326.722 308.747, 331.166 312.486 C 335.449 316.090, 339.499 315.811, 343.431 311.642 C 349.301 305.418, 351.333 292.695, 349.901 271.119 C 348.935 256.569, 347.692 247.806, 345.273 238.500 C 343.323 231.001, 342.106 229.471, 339.569 231.326 C 337.785 232.630, 337.793 232.993, 339.810 243.086 C 345.735 272.727, 344.735 303.090, 337.691 307.395 C 333.360 310.042, 331.263 301.674, 329.951 276.500 C 329.435 266.600, 328.519 253.614, 327.914 247.643 C 327.225 240.835, 327.167 236.433, 327.759 235.841 C 328.351 235.249, 328.129 232.500, 327.165 228.469 C 326.319 224.933, 325.902 221.765, 326.238 221.428 C 326.575 221.092, 328.459 221.398, 330.425 222.109 C 333.508 223.224, 334 223.841, 334 226.594 C 334 230.282, 335.761 231.379, 338.483 229.389 C 339.528 228.625, 341.196 228, 342.191 228 C 343.186 228, 344 227.650, 344 227.223 C 344 225.381, 340.726 222, 338.943 222 C 336.400 222, 336.426 219.383, 338.976 218.717 C 340.063 218.432, 341.469 217.064, 342.102 215.676 C 343.975 211.565, 342.377 206.635, 337.363 201.059 C 333.599 196.872, 332.905 195.514, 333.441 193.381 C 334.418 189.486, 333.038 182.352, 330.609 178.747 C 327.814 174.601, 322.422 171, 319.007 171 C 317.524 171, 315.486 170.089, 314.478 168.976 C 313.470 167.862, 312.163 167.113, 311.573 167.310 C 310.818 167.563, 310.500 198.917, 310.500 273.085 L 310.500 378.500 307.500 378.500 L 304.500 378.500 304.260 244.230 C 304.026 112.949, 303.977 109.874, 302.054 106.106 C 299.746 101.582, 295.095 97.418, 289.500 94.867 C 285.830 93.194, 282.242 93.053, 246 93.158 C 224.275 93.221, 205.600 93.461, 204.500 93.691 M 205.500 98.061 C 203.850 98.545, 200.871 100.289, 198.880 101.936 C 191.588 107.970, 192.116 97.238, 192.054 240.535 C 192.023 311.466, 192.282 371.641, 192.629 374.259 L 193.260 379.017 246.380 378.759 L 299.500 378.500 299.774 245.500 C 299.925 172.350, 299.806 111.496, 299.510 110.268 C 298.677 106.818, 292.952 100.883, 288.509 98.865 C 284.847 97.202, 281.209 97.050, 246.500 97.112 C 225.600 97.150, 207.150 97.577, 205.500 98.061 M 213 115.293 L 210.500 116.557 210.228 135.185 C 209.996 151.138, 210.185 154.043, 211.550 155.407 C 212.944 156.801, 217.317 157, 246.515 157 C 279.867 157, 279.888 156.999, 281.443 154.777 C 282.702 152.980, 283 149.340, 283 135.732 C 283 119.204, 282.957 118.866, 280.545 116.455 L 278.091 114 246.795 114.015 C 223.586 114.026, 214.854 114.356, 213 115.293 M 213.653 117.831 C 212.741 118.838, 212.297 119.963, 212.664 120.331 C 213.818 121.484, 277.808 121.120, 278.527 119.956 C 278.882 119.382, 278.628 118.257, 277.964 117.456 C 276.954 116.239, 271.711 116, 246.033 116 C 217.524 116, 215.191 116.132, 213.653 117.831 M 215.500 168.954 C 214.400 169.409, 212.427 170.936, 211.116 172.348 L 208.732 174.914 208.822 209.160 C 208.906 241.097, 209.040 243.577, 210.803 245.953 C 214.387 250.783, 215.665 250.970, 245.282 250.985 C 275.377 251.001, 278.063 250.605, 281.296 245.672 C 282.817 243.350, 283 239.432, 283 209.258 C 283 172.237, 283.060 172.634, 276.989 169.494 C 274.616 168.267, 269.042 168.011, 245.800 168.063 C 230.235 168.098, 216.600 168.499, 215.500 168.954 M 213.602 173.893 L 210.830 176.787 211.165 209.981 L 211.500 243.175 214.306 245.587 L 217.112 248 245.479 248 L 273.847 248 276.923 245.411 L 280 242.822 280 209.366 L 280 175.909 277.545 173.455 L 275.091 171 245.733 171 L 216.374 171 213.602 173.893 M 168.886 177 L 164.955 181.131 165.228 199.233 C 165.429 212.627, 165.825 217.443, 166.750 217.751 C 167.719 218.073, 168 214.120, 168 200.160 C 168 182.247, 168.013 182.137, 170.589 179.077 C 172.684 176.587, 173.939 176, 177.172 176 C 182.363 176, 181.864 173.627, 176.581 173.184 C 173.281 172.907, 172.330 173.379, 168.886 177 M 316.667 173.667 C 315.027 175.306, 316.174 177, 318.923 177 C 320.876 177, 322.904 178.058, 325.032 180.186 C 327.855 183.009, 328.163 183.859, 327.736 187.646 C 327.362 190.968, 327.672 192.298, 329.127 193.615 C 330.938 195.253, 331 195.112, 331 189.387 C 331 184.757, 330.468 182.681, 328.561 179.875 C 325.499 175.368, 318.578 171.756, 316.667 173.667 M 227.234 180.834 C 226.251 181.458, 226.028 188.089, 226.234 210.569 L 226.500 239.500 245.871 239.772 C 259.313 239.961, 265.664 239.694, 266.621 238.900 C 268.497 237.342, 268.666 183.066, 266.800 181.200 C 265.416 179.816, 229.364 179.482, 227.234 180.834 M 233 190.737 C 229.440 191.399, 229.032 192.513, 229.015 201.628 C 229.005 207.342, 229.411 210.096, 230.383 210.903 C 231.331 211.690, 236.912 211.964, 248.133 211.775 L 264.500 211.500 264.657 202.511 C 264.744 197.568, 264.391 192.730, 263.872 191.761 C 263.037 190.200, 261.371 190.015, 249.215 190.136 C 241.672 190.211, 234.375 190.481, 233 190.737 M 238 200.500 C 238 206.813, 238.111 207.123, 240.250 206.820 C 241.947 206.579, 242.557 205.762, 242.731 203.500 C 242.951 200.647, 242.907 200.610, 241.828 202.750 C 240.060 206.259, 239 205.416, 239 200.500 C 239 195.811, 240.138 194.760, 241.977 197.750 C 242.909 199.264, 243.017 199.163, 242.777 197 C 242.586 195.276, 241.801 194.401, 240.250 194.180 C 238.111 193.877, 238 194.187, 238 200.500 M 245 197.883 C 245 200.926, 245.433 201.880, 247 202.290 C 248.100 202.577, 249 203.347, 249 204 C 249 204.653, 248.100 205.423, 247 205.710 C 243.995 206.496, 244.595 208.179, 247.750 207.816 C 249.930 207.566, 250.567 206.915, 250.824 204.676 C 251.069 202.534, 250.663 201.725, 249.143 201.327 C 247.006 200.768, 245.627 198.413, 246.556 196.910 C 246.865 196.409, 248.216 196, 249.559 196 C 250.902 196, 252 195.550, 252 195 C 252 194.450, 250.425 194, 248.500 194 C 245.101 194, 245 194.112, 245 197.883 M 236 227.366 L 236 232.733 246.250 233.245 C 251.887 233.527, 256.837 233.560, 257.250 233.320 C 257.663 233.079, 258 230.434, 258 227.441 L 258 222 254.500 222 C 251.296 222, 251 222.248, 251 224.930 C 251 227.173, 251.510 227.936, 253.172 228.180 C 256.302 228.641, 256.736 231, 253.690 231 C 250.979 231, 250 229.387, 250 224.918 C 250 222.381, 249.631 222, 247.167 222 C 244.685 222, 244.333 222.373, 244.333 225 C 244.333 227.242, 244.796 228, 246.167 228 C 247.175 228, 248 228.670, 248 229.489 C 248 230.465, 247.140 230.906, 245.500 230.771 C 243.624 230.615, 243 229.994, 243 228.282 C 243 226.667, 242.416 226, 241 226 C 239.900 226, 239 225.550, 239 225 C 239 224.450, 239.900 224, 241 224 C 242.100 224, 243 223.550, 243 223 C 243 222.450, 241.425 222, 239.500 222 L 236 222 236 227.366 M 239 229.500 C 239 230.325, 239.450 231, 240 231 C 240.550 231, 241 230.325, 241 229.500 C 241 228.675, 240.550 228, 240 228 C 239.450 228, 239 228.675, 239 229.500 M 143 398 L 143 403 124 403 C 106.367 403, 102.796 403.520, 106.158 405.598 C 107.612 406.496, 395.478 406.440, 396.933 405.541 C 400.164 403.545, 396.127 403.016, 375.783 402.769 L 353.566 402.500 353.858 397.750 L 354.151 393 248.576 393 L 143 393 143 398" stroke="none" fill="#000000" fill-rule="evenodd"/><path d="M 245.034 266.937 C 244.359 268.198, 241.564 271.991, 238.823 275.365 C 229.050 287.398, 226.618 296.429, 230.900 304.790 C 232.922 308.738, 237.895 313, 240.480 313 C 241.817 313, 241.751 312.432, 240.020 309.040 C 237.621 304.338, 237.531 303.019, 239.430 300.441 C 240.814 298.563, 240.976 298.612, 244.430 301.946 C 248.765 306.131, 248.922 305.524, 245.075 299.457 C 241.261 293.442, 240.357 288.145, 242.453 284.091 C 243.332 282.391, 244.506 281, 245.061 281 C 245.731 281, 245.723 281.650, 245.035 282.934 C 244.466 283.998, 244 286.571, 244 288.653 C 244 291.867, 244.776 293.223, 249.154 297.656 C 255.041 303.617, 255.794 307.461, 251.889 311.618 C 249.323 314.350, 249.903 314.619, 253.901 312.551 C 258.149 310.354, 262.781 304.527, 264.063 299.767 C 265.608 294.028, 263.416 287.144, 257.473 279.071 C 252.542 272.372, 251.373 271.435, 253.656 276.012 C 255.359 279.426, 254.365 284.300, 251.867 284.785 C 250.785 284.995, 250.403 284.078, 250.411 281.285 C 250.417 279.203, 250.063 276.303, 249.625 274.840 C 249.020 272.819, 249.196 272.098, 250.357 271.840 C 251.563 271.571, 251.293 270.779, 249.073 268.072 L 246.261 264.644 245.034 266.937" stroke="none" fill="#f2181b" fill-rule="evenodd"/><path d="M 206.750 101.749 C 205.787 101.968, 205 102.590, 205 103.132 C 205 103.674, 204.597 103.869, 204.105 103.565 C 203.612 103.260, 202.941 103.712, 202.612 104.569 C 202.283 105.426, 201.592 105.866, 201.076 105.547 C 200.560 105.228, 199.813 105.494, 199.415 106.138 C 198.935 106.914, 199.165 107.064, 200.095 106.582 C 200.868 106.182, 200.306 106.900, 198.846 108.178 C 192.626 113.619, 192.961 105.575, 193.019 248.162 L 193.071 378 246.036 378 L 299 378 299 248.126 C 299 133.966, 298.814 117.725, 297.466 113.904 C 295.899 109.462, 292.898 105.570, 289.720 103.857 C 288.713 103.314, 270.978 102.706, 248.886 102.456 C 227.407 102.213, 209.533 101.865, 209.166 101.683 C 208.800 101.501, 207.713 101.531, 206.750 101.749 M 220.666 113.888 C 213.519 114.383, 211.562 114.871, 210.416 116.441 C 209.322 117.942, 209.001 122.369, 209.005 135.941 L 209.009 153.500 212.055 156.750 L 215.101 160 246.462 160 L 277.822 160 280.411 156.923 C 282.990 153.859, 283 153.773, 283 135.578 C 283 119.439, 282.796 117.129, 281.250 115.755 C 279.798 114.464, 275.240 114.121, 254.500 113.738 C 240.750 113.484, 225.525 113.552, 220.666 113.888 M 222.165 168 C 214.290 168.472, 213.668 168.680, 210.915 171.766 L 208 175.032 208 209.445 L 208 243.858 211.368 247.429 L 214.736 251 245.383 251 L 276.029 251 279.765 247.578 L 283.500 244.156 283.790 210.881 C 284.100 175.180, 283.906 173.494, 279.100 170.071 C 276.745 168.394, 274.021 168.158, 253.482 167.847 C 240.842 167.656, 226.749 167.725, 222.165 168 M 242.855 264.750 C 241.072 267.363, 237.388 272.421, 234.668 275.991 C 231.948 279.561, 228.885 284.436, 227.861 286.824 C 224.181 295.409, 226.252 305.187, 233.128 311.689 C 237.306 315.639, 240.795 317, 246.749 317 C 261.833 317, 271.512 300.542, 264.943 286.064 C 263.211 282.246, 247.421 260, 246.443 260 C 246.252 260, 244.638 262.137, 242.855 264.750" stroke="none" fill="#02b5aa" fill-rule="evenodd"/><path d="M 210.750 92.723 C 212.537 92.945, 215.463 92.945, 217.250 92.723 C 219.037 92.502, 217.575 92.320, 214 92.320 C 210.425 92.320, 208.963 92.502, 210.750 92.723 M 229.776 92.733 C 232.128 92.945, 235.728 92.942, 237.776 92.727 C 239.824 92.512, 237.900 92.339, 233.500 92.343 C 229.100 92.346, 227.424 92.522, 229.776 92.733 M 246.750 92.732 C 249.088 92.943, 252.912 92.943, 255.250 92.732 C 257.587 92.522, 255.675 92.349, 251 92.349 C 246.325 92.349, 244.412 92.522, 246.750 92.732 M 226.684 97.748 C 237.235 97.910, 254.785 97.911, 265.684 97.749 C 276.583 97.587, 267.950 97.455, 246.500 97.455 C 225.050 97.454, 216.133 97.587, 226.684 97.748 M 247.250 102.716 C 248.762 102.945, 251.238 102.945, 252.750 102.716 C 254.262 102.487, 253.025 102.300, 250 102.300 C 246.975 102.300, 245.738 102.487, 247.250 102.716 M 262.750 102.723 C 264.538 102.945, 267.462 102.945, 269.250 102.723 C 271.038 102.502, 269.575 102.320, 266 102.320 C 262.425 102.320, 260.962 102.502, 262.750 102.723 M 278.264 102.718 C 279.784 102.947, 282.034 102.941, 283.264 102.704 C 284.494 102.467, 283.250 102.279, 280.500 102.286 C 277.750 102.294, 276.744 102.488, 278.264 102.718 M 304.252 114.500 C 304.263 116.700, 304.468 117.482, 304.707 116.238 C 304.946 114.994, 304.937 113.194, 304.687 112.238 C 304.437 111.282, 304.241 112.300, 304.252 114.500 M 187.445 143 C 187.445 160.325, 187.582 167.412, 187.748 158.750 C 187.915 150.087, 187.915 135.912, 187.748 127.250 C 187.582 118.587, 187.445 125.675, 187.445 143 M 234.287 113.740 C 237.469 113.939, 242.419 113.937, 245.287 113.736 C 248.154 113.535, 245.550 113.372, 239.500 113.374 C 233.450 113.376, 231.104 113.541, 234.287 113.740 M 280.286 116.301 C 281.504 117.566, 282.685 118.469, 282.911 118.307 C 283.494 117.888, 279.856 114, 278.881 114 C 278.436 114, 279.068 115.035, 280.286 116.301 M 192.453 152.500 C 192.453 172.850, 192.586 181.033, 192.749 170.685 C 192.912 160.336, 192.911 143.686, 192.748 133.685 C 192.585 123.683, 192.452 132.150, 192.453 152.500 M 299.246 247.241 L 299 377.982 245.750 378.250 L 192.500 378.518 245.781 378.759 C 287.665 378.948, 299.165 378.733, 299.539 377.750 C 299.800 377.063, 299.897 318, 299.753 246.500 L 299.492 116.500 299.246 247.241 M 209.196 135.691 C 209.088 145.696, 209.338 154.092, 209.750 154.348 C 210.162 154.605, 210.382 149.344, 210.239 142.657 C 209.749 119.860, 209.392 117.478, 209.196 135.691 M 212.863 120.264 C 213.284 120.684, 228.224 120.909, 246.064 120.763 L 278.500 120.498 245.299 119.999 C 227.039 119.725, 212.442 119.844, 212.863 120.264 M 304.435 144 C 304.435 158.025, 304.575 163.763, 304.747 156.750 C 304.919 149.738, 304.919 138.263, 304.747 131.250 C 304.575 124.238, 304.435 129.975, 304.435 144 M 280.374 156.026 C 279.701 156.699, 267.766 156.958, 245.768 156.776 C 227.300 156.624, 212.399 156.838, 212.654 157.250 C 212.909 157.662, 228.111 158, 246.437 158 C 274.833 158, 279.939 157.778, 281 156.500 C 282.406 154.806, 281.944 154.456, 280.374 156.026 M 236.250 167.689 C 237.213 167.941, 238.787 167.941, 239.750 167.689 C 240.713 167.438, 239.925 167.232, 238 167.232 C 236.075 167.232, 235.287 167.438, 236.250 167.689 M 246.750 171.706 C 247.988 171.944, 250.012 171.944, 251.250 171.706 C 252.488 171.467, 251.475 171.272, 249 171.272 C 246.525 171.272, 245.512 171.467, 246.750 171.706 M 258.750 171.706 C 259.988 171.944, 262.012 171.944, 263.250 171.706 C 264.488 171.467, 263.475 171.272, 261 171.272 C 258.525 171.272, 257.512 171.467, 258.750 171.706 M 211.451 176.267 C 211.184 176.964, 211.086 189.002, 211.234 203.017 L 211.503 228.500 212.002 201.749 C 212.276 187.036, 212.373 174.999, 212.219 174.999 C 212.064 175, 211.718 175.570, 211.451 176.267 M 283.448 209 C 283.448 227.425, 283.583 234.963, 283.748 225.750 C 283.913 216.537, 283.913 201.463, 283.748 192.250 C 283.583 183.037, 283.448 190.575, 283.448 209 M 183.437 204 C 183.437 218.575, 183.577 224.537, 183.747 217.250 C 183.918 209.963, 183.918 198.037, 183.747 190.750 C 183.577 183.463, 183.437 189.425, 183.437 204 M 241.784 179.738 C 244.689 179.941, 249.189 179.939, 251.784 179.734 C 254.378 179.528, 252 179.363, 246.500 179.365 C 241 179.368, 238.878 179.536, 241.784 179.738 M 162.415 200 C 162.415 210.175, 162.564 214.338, 162.745 209.250 C 162.927 204.162, 162.927 195.837, 162.745 190.750 C 162.564 185.662, 162.415 189.825, 162.415 200 M 225.441 210 C 225.441 225.675, 225.579 232.087, 225.748 224.250 C 225.917 216.412, 225.917 203.587, 225.748 195.750 C 225.579 187.912, 225.441 194.325, 225.441 210 M 208.435 210 C 208.435 224.025, 208.575 229.763, 208.747 222.750 C 208.919 215.738, 208.919 204.263, 208.747 197.250 C 208.575 190.238, 208.435 195.975, 208.435 210 M 241.750 190.743 C 245.738 190.932, 252.262 190.932, 256.250 190.743 C 260.238 190.553, 256.975 190.397, 249 190.397 C 241.025 190.397, 237.762 190.553, 241.750 190.743 M 229.355 201.500 C 229.352 206.450, 229.521 208.601, 229.731 206.280 C 229.940 203.959, 229.943 199.909, 229.736 197.280 C 229.530 194.651, 229.358 196.550, 229.355 201.500 M 237.300 200 C 237.300 203.025, 237.487 204.262, 237.716 202.750 C 237.945 201.238, 237.945 198.762, 237.716 197.250 C 237.487 195.738, 237.300 196.975, 237.300 200 M 263.990 204.205 C 263.720 208.442, 263.860 211.548, 264.299 211.106 C 264.739 210.663, 264.959 207.196, 264.789 203.401 L 264.480 196.500 263.990 204.205 M 192.223 287.250 C 192.101 334.413, 192.338 373, 192.750 373 C 193.423 373, 193.400 257.569, 192.719 217.500 C 192.569 208.700, 192.346 240.088, 192.223 287.250 M 244.333 224.808 C 244.333 227.525, 244.443 227.601, 246.190 226.105 C 247.517 224.969, 247.683 224.399, 246.773 224.108 C 246.073 223.884, 245.238 223.300, 244.917 222.811 C 244.596 222.322, 244.333 223.220, 244.333 224.808 M 251.015 225.250 C 251.026 227.460, 251.307 228.064, 251.893 227.139 C 252.679 225.898, 252.293 222, 251.383 222 C 251.173 222, 251.007 223.463, 251.015 225.250 M 238.667 226.667 C 238.300 227.033, 238.029 228.271, 238.063 229.417 C 238.122 231.332, 238.204 231.307, 239.085 229.105 C 240.064 226.657, 239.861 225.472, 238.667 226.667 M 249.781 230.730 C 249.264 232.707, 249.502 232.853, 252.356 232.310 C 256.430 231.536, 257.001 231, 253.750 231 C 252.329 231, 250.983 230.449, 250.759 229.776 C 250.534 229.102, 250.094 229.532, 249.781 230.730 M 211.272 234 C 211.272 236.475, 211.467 237.488, 211.706 236.250 C 211.944 235.012, 211.944 232.988, 211.706 231.750 C 211.467 230.512, 211.272 231.525, 211.272 234 M 317.310 241.500 C 317.315 244.800, 317.502 246.029, 317.725 244.232 C 317.947 242.435, 317.943 239.735, 317.715 238.232 C 317.486 236.729, 317.304 238.200, 317.310 241.500 M 175.286 242.500 C 175.294 245.250, 175.488 246.256, 175.718 244.736 C 175.947 243.216, 175.941 240.966, 175.704 239.736 C 175.467 238.506, 175.279 239.750, 175.286 242.500 M 208 241.441 C 208 242.784, 208.369 244.110, 208.819 244.388 C 209.270 244.667, 209.443 243.568, 209.206 241.947 C 208.681 238.373, 208 238.087, 208 241.441 M 182.453 277 C 182.453 297.625, 182.586 306.063, 182.749 295.750 C 182.911 285.438, 182.911 268.563, 182.749 258.250 C 182.586 247.938, 182.453 256.375, 182.453 277 M 187.243 308.680 L 187 377.861 184.750 378.294 L 182.500 378.728 184.781 378.864 C 186.036 378.939, 187.278 378.438, 187.540 377.750 C 187.803 377.063, 187.898 345.675, 187.752 308 L 187.486 239.500 187.243 308.680 M 234.750 247.747 C 240.938 247.922, 251.063 247.922, 257.250 247.747 C 263.438 247.571, 258.375 247.428, 246 247.428 C 233.625 247.428, 228.563 247.571, 234.750 247.747 M 322.252 263.500 C 322.263 265.700, 322.468 266.482, 322.707 265.238 C 322.946 263.994, 322.937 262.194, 322.687 261.238 C 322.437 260.282, 322.241 261.300, 322.252 263.500 M 329.252 264.500 C 329.263 266.700, 329.468 267.482, 329.707 266.238 C 329.946 264.994, 329.937 263.194, 329.687 262.238 C 329.437 261.282, 329.241 262.300, 329.252 264.500 M 350.310 275.500 C 350.315 278.800, 350.502 280.029, 350.725 278.232 C 350.947 276.435, 350.943 273.735, 350.715 272.232 C 350.486 270.729, 350.304 272.200, 350.310 275.500 M 343.365 281.500 C 343.368 287, 343.536 289.122, 343.738 286.216 C 343.941 283.311, 343.939 278.811, 343.734 276.216 C 343.528 273.622, 343.363 276, 343.365 281.500 M 323.272 287 C 323.272 289.475, 323.467 290.488, 323.706 289.250 C 323.944 288.012, 323.944 285.988, 323.706 284.750 C 323.467 283.512, 323.272 284.525, 323.272 287 M 330.232 286 C 330.232 287.925, 330.438 288.712, 330.689 287.750 C 330.941 286.788, 330.941 285.212, 330.689 284.250 C 330.438 283.288, 330.232 284.075, 330.232 286 M 350.272 291 C 350.272 293.475, 350.467 294.488, 350.706 293.250 C 350.944 292.012, 350.944 289.988, 350.706 288.750 C 350.467 287.512, 350.272 288.525, 350.272 291 M 145.252 306.500 C 145.263 308.700, 145.468 309.482, 145.707 308.238 C 145.946 306.994, 145.937 305.194, 145.687 304.238 C 145.437 303.282, 145.241 304.300, 145.252 306.500 M 152.300 314 C 152.300 317.025, 152.487 318.262, 152.716 316.750 C 152.945 315.238, 152.945 312.762, 152.716 311.250 C 152.487 309.738, 152.300 310.975, 152.300 314 M 144.370 329 C 144.370 334.775, 144.535 337.137, 144.737 334.250 C 144.939 331.363, 144.939 326.637, 144.737 323.750 C 144.535 320.863, 144.370 323.225, 144.370 329 M 174.252 329.500 C 174.263 331.700, 174.468 332.482, 174.707 331.238 C 174.946 329.994, 174.937 328.194, 174.687 327.238 C 174.437 326.282, 174.241 327.300, 174.252 329.500 M 173.872 357.692 C 172.940 358.842, 172.901 359.143, 173.750 358.633 C 174.717 358.052, 175 360.151, 175 367.895 L 175 377.909 168.250 378.258 L 161.500 378.608 168.750 378.804 L 176 379 176 367.500 C 176 361.175, 175.830 356, 175.622 356 C 175.415 356, 174.627 356.761, 173.872 357.692 M 317.286 364.500 C 317.294 367.250, 317.488 368.256, 317.718 366.736 C 317.947 365.216, 317.941 362.966, 317.704 361.736 C 317.467 360.506, 317.279 361.750, 317.286 364.500 M 317.795 378.175 C 318.183 378.546, 321.967 378.996, 326.205 379.175 C 330.442 379.354, 333.592 379.196, 333.205 378.825 C 332.817 378.454, 329.033 378.004, 324.795 377.825 C 320.558 377.646, 317.408 377.804, 317.795 378.175 M 159 390.250 C 159 390.663, 198.938 390.894, 247.750 390.765 C 296.563 390.635, 322.325 390.411, 305 390.266 C 222.631 389.578, 159 389.571, 159 390.250 M 353.880 402.284 C 354.314 402.716, 359.806 402.938, 366.084 402.779 L 377.500 402.490 365.296 401.995 C 358.584 401.723, 353.447 401.853, 353.880 402.284 M 121.750 402.740 C 125.188 402.936, 130.813 402.936, 134.250 402.740 C 137.688 402.545, 134.875 402.385, 128 402.385 C 121.125 402.385, 118.313 402.545, 121.750 402.740 M 200.826 406.750 C 229.606 406.897, 276.406 406.897, 304.826 406.750 C 333.247 406.602, 309.700 406.482, 252.500 406.482 C 195.300 406.482, 172.047 406.602, 200.826 406.750" stroke="none" fill="#08524e" fill-rule="evenodd"/><path d="M 0 256.002 L 0 512.004 256.250 511.752 L 512.500 511.500 512.752 255.750 L 513.004 0 256.502 0 L 0 0 0 256.002 M 0.492 256.500 C 0.492 397.300, 0.608 454.751, 0.750 384.170 C 0.892 313.588, 0.892 198.388, 0.750 128.170 C 0.608 57.951, 0.492 115.700, 0.492 256.500 M 204.636 93.483 C 196.441 96.367, 189.884 103.003, 187.881 110.442 C 187.149 113.160, 186.916 134.431, 187.153 176.969 C 187.344 211.361, 187.387 270.663, 187.250 308.750 C 187.004 376.945, 186.970 378, 185.026 378 C 183.082 378, 183.048 376.929, 182.776 307.250 C 182.624 268.337, 182.838 236.350, 183.250 236.167 C 183.662 235.983, 184 220.346, 184 201.417 C 184 172.666, 183.771 167, 182.607 167 C 181.841 167, 180.955 167.675, 180.638 168.500 C 180.284 169.424, 178.765 170, 176.681 170 C 172.337 170, 165.893 174.598, 163.669 179.285 C 162.308 182.154, 162 186.032, 162 200.329 L 162 217.855 164.635 219.927 C 166.084 221.067, 168.320 222, 169.603 222 C 172.380 222, 172.033 223.706, 168.201 228.882 L 165.697 232.263 168.012 234.009 L 170.327 235.755 168.244 236.869 C 166.669 237.712, 166.062 237.686, 165.753 236.760 C 165.220 235.159, 158.403 242.908, 158.794 244.672 C 158.955 245.403, 158.627 246, 158.064 246 C 156.635 246, 153.612 252.244, 151.108 260.370 C 147.315 272.679, 143.158 321.530, 144.473 338.347 C 145.465 351.027, 147.391 356.654, 152.479 361.742 C 156.132 365.395, 157.331 366, 160.918 366 C 165.951 366, 170.067 364.029, 172.865 360.278 L 174.937 357.500 174.968 367.750 L 175 378 168.539 378 L 162.077 378 161.139 381.750 C 160.623 383.813, 159.922 386.738, 159.581 388.250 L 158.962 391 247.569 391 L 336.176 391 335.463 386.750 C 334.004 378.059, 333.938 378, 325.525 378 L 318 378 318 307 C 318 260.333, 318.343 236, 319 236 C 319.550 236, 320 236.468, 320 237.039 C 320 237.611, 320.448 242.224, 320.996 247.289 C 321.544 252.355, 322.435 265.725, 322.977 277 C 324.279 304.123, 326.400 311.598, 333.657 314.630 C 337.869 316.390, 340.805 315.273, 344.840 310.378 C 349.815 304.342, 351.433 294.957, 350.673 276.541 C 349.868 257.031, 345.992 233.884, 342.990 230.651 C 341.980 229.563, 338.324 230.702, 337.735 232.288 C 337.488 232.955, 338.394 238.675, 339.748 245 C 341.879 254.954, 342.230 259.322, 342.355 277.500 C 342.494 297.646, 342.405 298.693, 340.161 303.250 C 337.531 308.591, 336.669 308.979, 334.615 305.750 C 332.225 301.994, 331.061 293.472, 330.006 272 C 329.452 260.725, 328.509 248.176, 327.910 244.114 C 327.063 238.365, 327.096 236.559, 328.059 235.963 C 329.030 235.364, 328.953 233.836, 327.704 228.877 C 326.828 225.400, 326.304 222.363, 326.539 222.128 C 326.774 221.893, 328.436 222.132, 330.233 222.660 C 332.939 223.455, 333.454 224.057, 333.233 226.173 C 332.873 229.630, 335.487 231.802, 338.068 230.190 C 339.116 229.535, 340.627 229, 341.427 229 C 345.475 229, 344.167 223.420, 339.655 221.437 C 336.754 220.163, 336.671 220.002, 338.626 219.442 C 344.678 217.705, 344.324 208.569, 337.917 201.131 C 333.848 196.407, 333.642 195.866, 333.888 190.545 C 334.361 180.347, 328.222 172.169, 318.819 170.469 C 316.795 170.103, 314.896 169.173, 314.601 168.402 C 314.305 167.631, 313.152 167, 312.039 167 C 310.015 167, 310.015 167.033, 310.672 272.500 L 311.330 378 307.519 378 L 303.708 378 304.218 244.503 L 304.728 111.007 302.472 106.136 C 300.056 100.923, 295.798 97.082, 289.446 94.388 C 286.031 92.940, 280.317 92.675, 247 92.419 C 216.508 92.185, 207.696 92.406, 204.636 93.483 M 203.500 99.160 C 196.695 102.901, 190.080 113.480, 192.828 116.228 C 193.459 116.859, 194.047 116.375, 194.501 114.851 C 195.647 110.997, 199.749 105.580, 202.954 103.687 C 205.694 102.067, 209.404 101.920, 246.064 101.977 C 289.844 102.046, 289.277 101.975, 294.296 107.940 C 295.690 109.597, 297.129 112.313, 297.495 113.976 C 298.243 117.383, 300 118.079, 300 114.968 C 300 112.282, 297.358 106.053, 295.212 103.680 C 294.270 102.639, 291.830 100.935, 289.790 99.894 C 286.328 98.127, 283.387 98.002, 245.790 98.030 C 218.433 98.051, 204.858 98.414, 203.500 99.160 M 215.250 117.031 C 209.035 119.529, 213.908 120, 246 120 C 264.150 120, 279 119.807, 279 119.571 C 279 119.336, 278.293 118.436, 277.429 117.571 C 276.069 116.212, 271.928 116.009, 246.679 116.063 C 230.630 116.098, 216.488 116.534, 215.250 117.031 M 214 159 C 216.056 160.329, 277.679 160.329, 278.500 159 C 278.907 158.341, 267.764 158.005, 245.809 158.015 C 223.934 158.025, 213.015 158.363, 214 159 M 216.315 171.996 C 215.114 172.486, 213.651 173.783, 213.065 174.878 C 212.373 176.171, 212 188.399, 212 209.760 L 212 242.651 214.444 244.947 C 216.876 247.232, 217.020 247.243, 245.344 247.210 C 274.654 247.176, 276.915 246.896, 278.977 243.043 C 279.613 241.854, 280 229.027, 280 209.122 C 280 177.134, 279.998 177.110, 277.693 174.430 L 275.386 171.748 246.943 171.426 C 231.299 171.249, 217.517 171.505, 216.315 171.996 M 169.711 176.926 L 165.500 180.853 165.500 198.676 C 165.500 209.559, 165.889 216.695, 166.500 217 C 167.143 217.322, 167.598 211.088, 167.774 199.530 C 168.047 181.595, 168.053 181.554, 170.711 178.780 C 172.574 176.835, 174.370 176, 176.687 176 C 178.965 176, 180 175.531, 180 174.500 C 180 171.393, 174.172 172.767, 169.711 176.926 M 316.500 175 C 316.160 175.550, 316.246 176.033, 316.691 176.074 C 324.040 176.749, 327.305 180.104, 327.989 187.683 C 328.635 194.833, 331 196.287, 331 189.534 C 331 184.032, 329.203 180.190, 324.959 176.619 C 321.809 173.968, 317.632 173.169, 316.500 175 M 232.525 179.717 C 229.789 179.943, 226.977 180.604, 226.275 181.186 C 225.297 181.998, 225.004 188.682, 225.015 209.872 C 225.024 225.068, 225.394 238.072, 225.837 238.771 C 226.457 239.747, 231.398 239.979, 247.072 239.771 L 267.500 239.500 267.765 210.293 C 268.011 183.220, 267.901 181.024, 266.265 180.229 C 264.440 179.343, 241.297 178.992, 232.525 179.717 M 230.667 191.667 C 230.300 192.033, 230 196.525, 230 201.648 C 230 212.895, 228.678 212.189, 249 211.787 L 263.500 211.500 263.785 201.250 L 264.070 191 247.702 191 C 238.699 191, 231.033 191.300, 230.667 191.667 M 237.667 194.667 C 236.497 195.836, 236.952 204.551, 238.276 206.363 C 240.174 208.958, 243 207.444, 243 203.834 C 243 202.121, 242.580 201.141, 242 201.500 C 241.450 201.840, 241 202.766, 241 203.559 C 241 204.352, 240.550 205, 240 205 C 239.450 205, 239 203.200, 239 201 C 239 196.610, 239.594 196.097, 241.608 198.750 C 242.800 200.320, 242.940 200.166, 242.968 197.250 C 242.995 194.503, 242.639 194, 240.667 194 C 239.383 194, 238.033 194.300, 237.667 194.667 M 244.393 195.582 C 244.727 196.452, 245 198.221, 245 199.514 C 245 200.987, 245.747 202.102, 247 202.500 C 248.100 202.849, 249 203.554, 249 204.067 C 249 204.580, 248.100 205, 247 205 C 245.889 205, 245 205.667, 245 206.500 C 245 207.500, 246 208, 248 208 C 250.762 208, 251 207.722, 251 204.500 C 251 201.667, 250.619 201, 249 201 C 247.533 201, 247 200.333, 247 198.500 C 247 196.500, 247.500 196, 249.500 196 C 250.875 196, 252 195.550, 252 195 C 252 194.450, 250.152 194, 247.893 194 C 244.559 194, 243.900 194.298, 244.393 195.582 M 257.750 194.706 C 258.988 194.944, 260 195.783, 260 196.570 C 260 197.356, 258.988 198.052, 257.750 198.116 C 255.707 198.221, 255.684 198.278, 257.500 198.732 C 258.600 199.007, 259.831 199.742, 260.235 200.366 C 260.639 200.990, 260.976 199.813, 260.985 197.750 C 260.999 194.289, 260.788 194.011, 258.250 194.136 C 255.892 194.253, 255.821 194.334, 257.750 194.706 M 236.402 223.395 C 236.108 224.162, 236.009 226.524, 236.183 228.645 C 236.474 232.186, 236.765 232.526, 239.750 232.813 C 242.765 233.104, 243 232.910, 243 230.122 C 243 227.111, 241.464 225.156, 240.183 226.537 C 239.808 226.942, 240.063 227.475, 240.750 227.720 C 242.768 228.441, 242.183 231, 240 231 C 237.910 231, 237.624 230.007, 238.630 226.250 C 238.985 224.927, 240.009 224, 241.117 224 C 242.152 224, 243 223.550, 243 223 C 243 221.458, 237.008 221.816, 236.402 223.395 M 245 223 C 245 223.550, 245.675 224, 246.500 224 C 247.325 224, 248 224.450, 248 225 C 248 225.550, 247.325 226, 246.500 226 C 245.675 226, 245 226.450, 245 227 C 245 227.550, 245.900 228, 247 228 C 248.111 228, 249 228.667, 249 229.500 C 249 230.433, 248.056 231, 246.500 231 C 245.125 231, 244 231.480, 244 232.066 C 244 232.653, 245.238 232.990, 246.750 232.816 C 249.315 232.521, 249.520 232.147, 249.802 227.250 C 250.092 222.209, 250.003 222, 247.552 222 C 246.149 222, 245 222.450, 245 223 M 252 223.340 C 252 224.320, 252.669 224.638, 254 224.290 C 255.118 223.997, 256 224.259, 256 224.883 C 256 225.498, 255.100 226, 254 226 C 252.900 226, 252 226.450, 252 227 C 252 227.550, 252.900 228, 254 228 C 257.251 228, 256.590 231.778, 253.250 232.284 C 251.070 232.614, 251.288 232.731, 254.302 232.850 L 258.105 233 257.802 227.750 C 257.520 222.853, 257.315 222.479, 254.750 222.184 C 252.852 221.965, 252 222.323, 252 223.340 M 173.659 238 C 172.684 239.650, 171.462 241, 170.943 241 C 170.425 241, 170 241.822, 170 242.826 C 170 243.830, 168.918 245.668, 167.595 246.911 C 165.237 249.126, 165.135 249.135, 162.422 247.357 L 159.655 245.544 161.340 248.116 C 162.935 250.550, 162.918 250.930, 161.029 255.202 C 158.112 261.795, 156.159 272.229, 154.537 289.882 C 151.189 326.311, 151.570 343.719, 155.934 353.584 C 159.352 361.311, 165.287 360.219, 169.974 351 C 173.609 343.851, 174.091 337.356, 174.711 287.250 C 175.046 260.163, 175.698 238, 176.160 238 C 176.622 238, 177 237.325, 177 236.500 C 177 234.112, 175.579 234.751, 173.659 238 M 242.855 264.750 C 241.072 267.363, 237.388 272.421, 234.668 275.991 C 231.948 279.561, 228.885 284.436, 227.861 286.824 C 224.181 295.409, 226.252 305.187, 233.128 311.689 C 237.306 315.639, 240.795 317, 246.749 317 C 261.833 317, 271.512 300.542, 264.943 286.064 C 263.211 282.246, 247.421 260, 246.443 260 C 246.252 260, 244.638 262.137, 242.855 264.750 M 245.034 266.937 C 244.359 268.198, 241.564 271.991, 238.823 275.365 C 229.050 287.398, 226.618 296.429, 230.900 304.790 C 232.922 308.738, 237.895 313, 240.480 313 C 241.817 313, 241.751 312.432, 240.020 309.040 C 237.621 304.338, 237.531 303.019, 239.430 300.441 C 240.814 298.563, 240.976 298.612, 244.430 301.946 C 248.765 306.131, 248.922 305.524, 245.075 299.457 C 241.261 293.442, 240.357 288.145, 242.453 284.091 C 243.332 282.391, 244.506 281, 245.061 281 C 245.731 281, 245.723 281.650, 245.035 282.934 C 244.466 283.998, 244 286.571, 244 288.653 C 244 291.867, 244.776 293.223, 249.154 297.656 C 255.041 303.617, 255.794 307.461, 251.889 311.618 C 249.323 314.350, 249.903 314.619, 253.901 312.551 C 258.149 310.354, 262.781 304.527, 264.063 299.767 C 265.608 294.028, 263.416 287.144, 257.473 279.071 C 252.542 272.372, 251.373 271.435, 253.656 276.012 C 255.359 279.426, 254.365 284.300, 251.867 284.785 C 250.785 284.995, 250.403 284.078, 250.411 281.285 C 250.417 279.203, 250.063 276.303, 249.625 274.840 C 249.020 272.819, 249.196 272.098, 250.357 271.840 C 251.563 271.571, 251.293 270.779, 249.073 268.072 L 246.261 264.644 245.034 266.937 M 142.338 397.489 L 142.500 401.977 123.749 402.323 C 113.436 402.513, 104.662 403.005, 104.251 403.416 C 103.840 403.827, 104.376 404.802, 105.443 405.582 C 107.096 406.791, 128.756 407, 252.156 407 C 395.906 407, 396.937 406.986, 398 405 C 398.589 403.900, 398.942 402.949, 398.785 402.886 C 398.291 402.688, 376.971 402.181, 365.250 402.089 L 354 402 354 397.500 L 354 393 248.088 393 L 142.176 393 142.338 397.489" stroke="none" fill="#cbcccc" fill-rule="evenodd"/></svg>