<?xml version="1.0" encoding="utf-8"?>
<!-- Generator: Adobe Illustrator 27.5.0, SVG Export Plug-In . SVG Version: 6.00 Build 0)  -->
<svg version="1.1" id="Layer_1" xmlns="http://www.w3.org/2000/svg" xmlns:xlink="http://www.w3.org/1999/xlink" x="0px" y="0px"
	 viewBox="0 0 4000 4000" style="enable-background:new 0 0 4000 4000;" xml:space="preserve">
<g>
	<g>
		<rect style="fill:#FFFFFF;" width="4000" height="4000"/>
	</g>
	<g>
		<g>
			<defs>
				<circle id="SVGID_1_" cx="2030" cy="1766.2" r="1315"/>
			</defs>
			<use xlink:href="#SVGID_1_"  style="overflow:visible;fill:#0BCBFF;"/>
			<clipPath id="SVGID_00000174582578434825833890000003911197032837788058_">
				<use xlink:href="#SVGID_1_"  style="overflow:visible;"/>
			</clipPath>
			<g style="clip-path:url(#SVGID_00000174582578434825833890000003911197032837788058_);">
				<path style="fill:#FFFFFF;" d="M517.291,1622.651h630.764c20.95,0,32.036-25.717,17.555-41.175
					c-12.496-13.34-32.058-19.083-55.309-13.3c-6.726-52.549-47.422-92.923-96.641-92.923c-21.262,0-40.975,7.566-57.03,20.428
					c-13.111-73.045-71.195-128.105-140.87-128.105c-69.769,0-127.884,55.163-140.932,128.311
					c-21.014-15.648-46.337-24.761-73.55-24.761c-58.75,0-108.52,29.247-125.757,95.988
					C468.276,1595.158,488.887,1622.651,517.291,1622.651z"/>
			</g>
			<g style="clip-path:url(#SVGID_00000174582578434825833890000003911197032837788058_);">
				<path style="fill:#FFFFFF;" d="M3684.379,2201.634h-873.593c-29.015,0-44.368-35.617-24.313-57.026
					c17.307-18.476,44.4-26.429,76.602-18.42c9.315-72.779,65.678-128.696,133.846-128.696c29.448,0,56.749,10.478,78.985,28.292
					c18.158-101.166,98.603-177.422,195.102-177.422c96.628,0,177.116,76.399,195.188,177.708
					c29.104-21.672,64.176-34.294,101.865-34.294c81.367,0,150.297,40.506,174.171,132.941
					C3752.264,2163.557,3723.718,2201.634,3684.379,2201.634z"/>
			</g>
		</g>
	</g>
	<g>
		<g>
			<g style="opacity:0.3;">
				<path style="fill:#000072;" d="M2923.346,3478.382H1088.804c-73.992,9.561-115.856,20.425-115.856,31.946
					c0,38.32,462.548,69.382,1033.127,69.382s1033.127-31.063,1033.127-69.382
					C3039.202,3498.807,2997.338,3487.943,2923.346,3478.382z"/>
			</g>
			<g>
				<path style="fill:#E2E3F2;" d="M1643.289,1682.872v63.962c0,0-52.037,49.565-91.021,163.092l-35.082-25.411
					c3.469-9.02,7.068-17.953,10.798-26.669c18.647-43.754,40.893-83.823,67.388-119.598
					C1609.985,1718.43,1625.943,1699.913,1643.289,1682.872z"/>
				<path style="fill:#000072;" d="M1553.477,1913.759l-39.185-28.386l0.664-1.719c3.623-9.434,7.271-18.432,10.83-26.75
					c19.126-44.878,41.89-85.281,67.661-120.078c14.809-20.083,31.016-38.811,48.164-55.659l4.067-3.999v70.688l-0.742,0.708
					c-0.518,0.493-52.1,50.576-90.41,162.139L1553.477,1913.759z M1520.084,1883.656l30.977,22.441
					c36.079-103.369,83.359-153.694,89.834-160.259v-57.207c-15.464,15.603-30.112,32.751-43.599,51.038
					c-25.552,34.502-48.13,74.575-67.109,119.114C1526.866,1866.545,1523.468,1874.902,1520.084,1883.656z"/>
			</g>
			<g>
				<path style="fill:#F9123E;" d="M1643.289,1887.55v119.685c-6.071,1.951-12.619,3.035-19.384,3.035
					c-6.461,0-12.706-0.954-18.56-2.775c-25.672-7.935-44.318-31.829-44.318-60.103s18.646-52.167,44.318-60.103
					c5.854-1.822,12.099-2.775,18.56-2.775C1630.67,1884.515,1637.218,1885.599,1643.289,1887.55z"/>
			</g>
			<g>
				<path style="fill:#CBCCE1;" d="M2551.296,3459.241H1448.986v-26.347c0-42.927,34.799-77.727,77.727-77.727h946.858
					c42.927,0,77.727,34.799,77.727,77.727V3459.241z"/>
			</g>
			<g style="opacity:0.8;">
				<path style="fill:#FFFFFF;" d="M2473.569,3355.166h-946.857c-29.754,0-55.579,16.736-68.642,41.294
					c14.011-13.689,33.151-22.154,54.287-22.154h946.857c42.927,0,77.728,34.801,77.728,77.728v7.208h14.355v-26.348
					C2551.297,3389.967,2516.496,3355.166,2473.569,3355.166z"/>
			</g>
			<g>
				<path style="fill:#000072;" d="M2473.57,3355.168c42.925,0,77.725,34.8,77.725,77.727v26.348h-1102.31v-26.348
					c0-42.927,34.8-77.727,77.729-77.727H2473.57 M2473.57,3321.672h-946.855c-61.328,0-111.226,49.895-111.226,111.223v26.348
					c0,18.499,14.995,33.496,33.496,33.496h1102.31c18.501,0,33.496-14.998,33.496-33.496v-26.348
					C2584.791,3371.567,2534.898,3321.672,2473.57,3321.672L2473.57,3321.672z"/>
			</g>
			<g>
				<path style="fill:#F9123E;" d="M1802.48,1518.769h426.732c77.348,0,140.051,62.703,140.051,140.051v1662.853h-706.834V1658.819
					C1662.429,1581.472,1725.132,1518.769,1802.48,1518.769z"/>
			</g>
			<g style="opacity:0.55;">
				<path style="fill:#FFFFFF;" d="M2383.618,1649.234v1691.592h-35.211V1653.311c0-62.835-50.953-113.744-113.787-113.744h-479.303
					c-10.581,0-20.858,1.431-30.572,4.163c24.587-21.509,56.85-34.518,92.105-34.518h426.703
					C2320.914,1509.212,2383.618,1571.916,2383.618,1649.234z"/>
			</g>
			<g style="opacity:0.3;">
				<path style="fill:#000072;" d="M1867.541,1518.782c-77.361,0-140.066,62.705-140.066,140.023v1662.882h-65.046V1658.804
					c0-77.318,62.705-140.023,140.066-140.023H1867.541z"/>
			</g>
			<g style="opacity:0.3;">
				<path style="fill:#000072;" d="M1652.859,1887.55v119.685c-6.071,1.951-12.619,3.035-19.384,3.035
					c-6.461,0-12.706-0.954-18.56-2.775V1887.29c5.854-1.822,12.099-2.775,18.56-2.775
					C1640.24,1884.515,1646.788,1885.599,1652.859,1887.55z"/>
			</g>
			<g style="opacity:0.55;">
				<path style="fill:#FFFFFF;" d="M2317.853,1644.356v1686.807h-33.347V1655.067c0-28.36-22.983-51.3-51.3-51.3h-474.143
					c-2.082,0-4.163,0.13-6.201,0.39c13.313-20.901,36.686-34.778,63.268-34.778h426.703
					C2284.202,1569.379,2317.853,1603.03,2317.853,1644.356z"/>
			</g>
			<g>
				<path style="fill:#000072;" d="M2229.215,1518.769c77.344,0,140.049,62.703,140.049,140.051v1662.852h-706.836V1658.82
					c0-77.349,62.705-140.051,140.054-140.051H2229.215 M2229.215,1488.415h-426.733c-93.965,0-170.41,76.443-170.41,170.405
					v1662.852c0,16.765,13.594,30.354,30.356,30.354h706.836c16.763,0,30.356-13.589,30.356-30.354V1658.82
					C2399.62,1564.858,2323.175,1488.415,2229.215,1488.415L2229.215,1488.415z"/>
			</g>
			<g>
				<path style="fill:#000072;" d="M2229.2,1583.827c41.367,0,75.02,33.65,75.02,74.978v1662.881h-576.743V1658.806
					c0-41.328,33.647-74.978,75.02-74.978H2229.2 M2229.2,1562.145h-426.704c-53.32,0-96.704,43.362-96.704,96.66v1662.881
					c0,11.975,9.712,21.682,21.685,21.682h576.743c11.973,0,21.68-9.707,21.68-21.682V1658.806
					C2325.899,1605.507,2282.52,1562.145,2229.2,1562.145L2229.2,1562.145z"/>
			</g>
			<g>
				<path style="fill:#E2E3F2;" d="M2165.452,2249.857H1866.24c-20.357,0-36.859-16.503-36.859-36.86v-511.696
					c0-20.357,16.503-36.859,36.859-36.859h299.212c20.357,0,36.859,16.503,36.859,36.859v511.696
					C2202.312,2233.354,2185.809,2249.857,2165.452,2249.857z"/>
				<path style="fill:#000072;" d="M2165.45,2252.25h-299.209c-21.645,0-39.253-17.61-39.253-39.253v-511.697
					c0-21.643,17.607-39.251,39.253-39.251h299.209c21.646,0,39.253,17.607,39.253,39.251v511.697
					C2204.703,2234.64,2187.095,2252.25,2165.45,2252.25z M1866.241,1666.835c-19.004,0-34.468,15.462-34.468,34.465v511.697
					c0,19.006,15.464,34.468,34.468,34.468h299.209c19.004,0,34.468-15.461,34.468-34.468v-511.697
					c0-19.004-15.464-34.465-34.468-34.465H1866.241z"/>
			</g>
			<g style="opacity:0.3;">
				<path style="fill:#000072;" d="M2168.011,2249.77c-0.651,19.731-16.912,35.558-36.816,35.558h-299.212
					c-20.381,0-36.859-16.521-36.859-36.86v-511.696c0-19.514,15.134-35.472,34.301-36.773c-0.043,0.434-0.043,0.867-0.043,1.301
					v511.696c0,20.338,16.522,36.86,36.859,36.86h299.212C2166.32,2249.857,2167.144,2249.814,2168.011,2249.77z"/>
			</g>
			<g style="opacity:0.3;">
				<path style="fill:#000072;" d="M2202.052,2217.421c-2.211,18.256-17.779,32.436-36.599,32.436H1866.24
					c-20.338,0-36.859-16.522-36.859-36.86v-511.696c0-19.688,15.524-35.819,34.951-36.816c-0.173,1.431-0.26,2.948-0.26,4.423
					v437.934c0,61.099,49.522,110.622,110.665,110.622h225.406C2200.794,2217.464,2201.401,2217.464,2202.052,2217.421z"/>
			</g>
			<g style="opacity:0.85;">
				<path style="fill:#FFFFFF;" d="M2202.312,1701.301v511.696c0,17.519-12.272,32.219-28.707,35.949v-536.284
					c0-12.836-10.451-23.286-23.33-23.286h-318.899c4.943-14.484,18.69-24.934,34.865-24.934h299.212
					C2185.79,1664.442,2202.312,1680.964,2202.312,1701.301z"/>
			</g>
			<g>
				<path style="fill:#000072;" d="M2165.45,2262.868h-299.209c-27.5,0-49.868-22.373-49.868-49.871v-511.697
					c0-27.498,22.368-49.868,49.868-49.868h299.209c27.5,0,49.868,22.371,49.868,49.868v511.697
					C2215.318,2240.495,2192.95,2262.868,2165.45,2262.868z M1866.241,1677.453c-13.149,0-23.852,10.698-23.852,23.848v511.697
					c0,13.152,10.703,23.85,23.852,23.85h299.209c13.149,0,23.853-10.698,23.853-23.85v-511.697
					c0-13.149-10.703-23.848-23.853-23.848H1866.241z"/>
			</g>
			<g>
				<rect x="1923.336" y="1390.015" style="fill:#CBCCE1;" width="185.02" height="80.904"/>
				<path style="fill:#000072;" d="M2110.748,1473.312h-189.805v-85.691h189.805V1473.312z M1925.728,1468.527h180.234v-76.121
					h-180.234V1468.527z"/>
			</g>
			<g>
				<path style="fill:#000072;" d="M2108.355,1486.098h-185.02c-8.384,0-15.176-6.797-15.176-15.178v-80.906
					c0-8.381,6.792-15.178,15.176-15.178h185.02c8.384,0,15.176,6.797,15.176,15.178v80.906
					C2123.531,1479.301,2116.739,1486.098,2108.355,1486.098z M1938.511,1455.741h154.668v-50.549h-154.668V1455.741z"/>
			</g>
			<g>
				<path style="fill:#E2E3F2;" d="M2164.007,2642.302h-289.094c-25.147,0-45.532-20.385-45.532-45.532v-211.039
					c0-25.147,20.385-45.532,45.532-45.532h289.094c25.147,0,45.532,20.385,45.532,45.532v211.039
					C2209.539,2621.917,2189.154,2642.302,2164.007,2642.302z"/>
				<path style="fill:#000072;" d="M2164.005,2644.694h-289.092c-26.426,0-47.925-21.499-47.925-47.925v-211.038
					c0-26.426,21.499-47.925,47.925-47.925h289.092c26.426,0,47.925,21.499,47.925,47.925v211.038
					C2211.929,2623.195,2190.43,2644.694,2164.005,2644.694z M1874.913,2342.592c-23.789,0-43.14,19.353-43.14,43.14v211.038
					c0,23.787,19.35,43.14,43.14,43.14h289.092c23.789,0,43.14-19.353,43.14-43.14v-211.038c0-23.787-19.351-43.14-43.14-43.14
					H1874.913z"/>
			</g>
			<g style="opacity:0.3;">
				<path style="fill:#000072;" d="M2170.613,2641.826c-5.768,18.515-23.026,31.915-43.451,31.915h-289.108
					c-25.151,0-45.532-20.381-45.532-45.532v-211.053c0-22.896,16.912-41.847,38.941-45.056c-1.344,4.293-2.081,8.89-2.081,13.617
					v211.053c0,25.151,20.381,45.532,45.532,45.532h289.108C2166.276,2642.302,2168.445,2642.128,2170.613,2641.826z"/>
			</g>
			<g style="opacity:0.3;">
				<path style="fill:#000072;" d="M2209.51,2597.941c-0.607,24.63-20.728,44.361-45.489,44.361h-289.108
					c-25.151,0-45.532-20.381-45.532-45.532v-211.053c0-21.899,15.481-40.198,36.079-44.535c-0.043,0.39-0.043,0.78-0.043,1.171
					v168.903c0,48.437,39.244,87.682,87.682,87.682h246.958C2203.309,2598.938,2206.431,2598.591,2209.51,2597.941z"/>
			</g>
			<g style="opacity:0.85;">
				<path style="fill:#FFFFFF;" d="M2209.553,2385.717v211.053c0,19.34-12.055,35.906-29.097,42.454V2385.63
					c0-10.321-8.369-18.69-18.69-18.69h-328.31c7.112-15.785,22.983-26.755,41.456-26.755h289.108
					C2189.172,2340.185,2209.553,2360.566,2209.553,2385.717z"/>
			</g>
			<g>
				<path style="fill:#000072;" d="M2164.005,2655.312h-289.092c-32.28,0-58.54-26.262-58.54-58.542v-211.038
					c0-32.28,26.26-58.542,58.54-58.542h289.092c32.28,0,58.54,26.262,58.54,58.542v211.038
					C2222.545,2629.05,2196.285,2655.312,2164.005,2655.312z M1874.913,2353.21c-17.935,0-32.524,14.59-32.524,32.522v211.038
					c0,17.932,14.59,32.522,32.524,32.522h289.092c17.935,0,32.524-14.59,32.524-32.522v-211.038
					c0-17.932-14.59-32.522-32.524-32.522H1874.913z"/>
			</g>
			<g>
				<path style="fill:#000072;" d="M1086.277,3475.591c76.65-5.967,153.301-9.111,229.949-11.465
					c76.65-2.229,153.301-3.462,229.951-3.818c76.648-0.188,153.298,0.066,229.949,0.676l114.976,0.476
					c38.325,0.222,76.648,0.142,114.973-0.017l229.951-0.986l114.973-0.361c38.325,0.024,76.65-0.239,114.976,0.02
					c38.325,0.203,76.65,0.437,114.976,0.959c38.325,0.31,76.648,1.089,114.973,1.912c76.65,2.141,153.301,5.459,229.951,12.605
					c1.541,0.144,2.673,1.509,2.529,3.052c-0.127,1.365-1.213,2.407-2.529,2.529c-76.65,7.146-153.301,10.464-229.951,12.605
					c-38.325,0.823-76.648,1.602-114.973,1.912c-38.325,0.522-76.65,0.757-114.976,0.959c-38.325,0.259-76.65-0.005-114.976,0.02
					l-114.973-0.361l-229.951-0.986c-38.325-0.159-76.648-0.239-114.973-0.017l-114.976,0.476
					c-76.65,0.61-153.301,0.864-229.949,0.676c-76.65-0.356-153.301-1.589-229.951-3.818
					c-76.648-2.354-153.298-5.498-229.949-11.465c-1.541-0.12-2.693-1.467-2.573-3.008
					C1083.811,3476.77,1084.924,3475.693,1086.277,3475.591z"/>
			</g>
			<g>
				<path style="fill:#000072;" d="M1623.907,2023.281c-41.846,0-75.889-34.043-75.889-75.889s34.043-75.889,75.889-75.889
					c7.944,0,15.801,1.233,23.359,3.662c6.841,2.197,10.605,9.526,8.403,16.365c-2.197,6.843-9.536,10.605-16.362,8.406
					c-4.985-1.601-10.166-2.412-15.4-2.412c-27.5,0-49.873,22.371-49.873,49.868s22.373,49.868,49.873,49.868
					c5.239,0,10.42-0.811,15.4-2.41c6.841-2.195,14.165,1.565,16.362,8.406c2.202,6.838-1.563,14.167-8.403,16.365
					C1639.713,2022.048,1631.856,2023.281,1623.907,2023.281z"/>
			</g>
			<g>
				<polygon style="fill:#E2E3F2;" points="1521.87,1957.15 1507.776,1999.429 1545.72,2010.271 1537.047,2059.055 
					1481.758,2059.055 1481.758,2164.213 1506.692,2176.138 1506.692,2217.464 1424.3,2217.464 1424.3,2082.168 1408.039,2056.887 
					1408.039,2010.271 1444.898,2010.271 1506.692,1876.926 1567.011,1920.594 1561.027,1961.486 				"/>
				<path style="fill:#000072;" d="M1509.083,2219.858h-87.173V2082.87l-16.265-25.281v-49.712h37.725l62.373-134.592l63.848,46.221
					l-6.533,44.612l-39.526-4.378l-12.695,38.076l37.617,10.747l-9.399,52.883h-54.902v101.257l24.932,11.924V2219.858z
					 M1426.695,2215.073h77.603v-37.427l-24.932-11.924v-109.06h55.674l7.944-44.685l-38.271-10.933l15.498-46.484l38.784,4.294
					l5.44-37.17l-56.797-41.118l-61.211,132.097h-35.996v43.521l16.265,25.281V2215.073z"/>
			</g>
			<g style="opacity:0.85;">
				<polygon style="fill:#FFFFFF;" points="1481.758,2164.213 1506.692,2176.138 1506.692,2217.464 1482.842,2217.464 
					1482.842,2183.727 1457.908,2171.802 1457.908,2066.644 1481.758,2066.644 				"/>
			</g>
			<g style="opacity:0.85;">
				<polygon style="fill:#FFFFFF;" points="1507.776,1999.429 1545.72,2010.271 1537.047,2059.055 1514.541,2059.055 
					1521.87,2017.859 1483.926,2007.018 1498.019,1964.738 1518.574,1967.037 				"/>
			</g>
			<g style="opacity:0.85;">
				<polygon style="fill:#FFFFFF;" points="1567.011,1920.594 1561.027,1961.486 1538.651,1959.014 1543.161,1928.183 
					1498.063,1895.529 1506.692,1876.926 				"/>
			</g>
			<g>
				<path style="fill:#000072;" d="M1506.69,2230.475h-82.388c-7.183,0-13.008-5.825-13.008-13.01V2085.99l-14.199-22.065
					c-1.348-2.1-2.065-4.543-2.065-7.039v-46.616c0-7.185,5.825-13.01,13.008-13.01h28.55l58.301-125.803
					c1.631-3.528,4.756-6.138,8.521-7.119c3.74-0.974,7.759-0.232,10.908,2.051l60.322,43.669c3.926,2.842,5.947,7.627,5.244,12.422
					l-5.986,40.891c-1.016,6.934-7.378,11.819-14.302,11.045l-28.706-3.179l-6.475,19.417l24.878,7.107
					c6.411,1.833,10.4,8.22,9.233,14.788l-8.672,48.784c-1.104,6.208-6.499,10.732-12.808,10.732h-42.28v83.95l17.539,8.386
					c4.517,2.161,7.393,6.726,7.393,11.736v41.328C1519.698,2224.65,1513.873,2230.475,1506.69,2230.475z M1437.31,2204.455h56.372
					v-20.12l-17.539-8.386c-4.517-2.161-7.393-6.726-7.393-11.736v-105.159c0-7.185,5.825-13.01,13.008-13.01h44.39l4.707-26.489
					l-26.655-7.615c-3.413-0.976-6.279-3.301-7.935-6.44c-1.655-3.14-1.953-6.819-0.835-10.183l14.097-42.28
					c1.938-5.82,7.676-9.504,13.774-8.816l26.67,2.954l3.027-20.664l-41.147-29.788l-55.151,119.016
					c-2.129,4.597-6.733,7.542-11.802,7.542h-23.853v29.783l14.199,22.065c1.348,2.1,2.066,4.543,2.066,7.039V2204.455z"/>
			</g>
			<g>
				<path style="fill:#000072;" d="M1552.276,1922.939c-1.401,0-2.827-0.227-4.224-0.708c-6.797-2.334-10.415-9.734-8.081-16.528
					c33.74-98.284,76.958-149.814,90.308-164.146v-25.994c-41.108,46.741-74.287,103.85-100.952,173.596
					c-2.563,6.709-10.078,10.078-16.797,7.505c-6.714-2.566-10.073-10.085-7.51-16.797
					c32.656-85.413,74.898-152.883,129.141-206.267c3.735-3.672,9.312-4.751,14.15-2.727c4.839,2.026,7.983,6.758,7.983,12v63.96
					c0,3.56-1.455,6.965-4.033,9.419c-0.478,0.462-50.391,49.275-87.681,157.898
					C1562.73,1919.545,1557.681,1922.939,1552.276,1922.939z"/>
			</g>
			<g>
				<path style="fill:#000072;" d="M1471.202,3282.734c-17.197,0-34.175-4.116-50.117-12.424
					c-53.071-27.666-83.511-95.349-83.511-185.693c0-0.615,0.025-1.228,0.078-1.841c10.503-123.335,26.831-202.244,45.737-293.613
					c17.666-85.376,37.69-182.141,58.442-339.258c9.912-75.032-0.039-229.47-0.142-231.021l43.271-2.837
					c0.425,6.506,10.332,160.259-0.142,239.536c-20.957,158.679-41.152,256.267-58.965,342.366
					c-18.579,89.78-34.629,167.349-44.917,287.578c0.185,72.095,22.661,126.763,60.19,146.328
					c23.677,12.336,50.708,9.346,76.148-8.423c49.717-34.729,95.273-130.012,74.282-293.323
					c-50.723-225.889-81.865-399.004-80.425-563.359c4.199-305.442,46.147-378.616,50.918-385.955l36.357,23.633
					c-0.137,0.264-39.902,71.023-43.916,362.81c-1.401,160.322,29.419,330.986,79.6,554.346c0.142,0.647,0.259,1.301,0.342,1.96
					c20.215,155.537-14.302,280.935-92.324,335.437C1519.542,3274.745,1495.162,3282.734,1471.202,3282.734z"/>
			</g>
			<g>
				<path style="fill:#000072;" d="M1643.289,2126.269v196.223l-102.816-63.225v-63.311h8.435c32.005,0,62.836-14.59,81.293-40.737
					C1636.164,2146.772,1640.856,2137.145,1643.289,2126.269z"/>
			</g>
			<g>
				<circle style="fill:#000072;" cx="1875.997" cy="2391.875" r="10.57"/>
			</g>
			<g>
				<circle style="fill:#000072;" cx="2155.695" cy="2391.875" r="10.57"/>
			</g>
			<g>
				<circle style="fill:#000072;" cx="1875.997" cy="2597.854" r="10.57"/>
			</g>
			<g>
				<circle style="fill:#000072;" cx="2155.695" cy="2597.854" r="10.57"/>
			</g>
			<g>
				<path style="fill:#000072;" d="M2078.001,2004.85h-124.31c-8.582,0-15.539-6.957-15.539-15.539v-28.909
					c0-8.582,6.957-15.539,15.539-15.539h124.31c8.582,0,15.539,6.957,15.539,15.539v28.909
					C2093.54,1997.893,2086.583,2004.85,2078.001,2004.85z"/>
			</g>
			<g>
				<path style="fill:#000072;" d="M2078.001,2122.656h-124.31c-8.582,0-15.539-6.957-15.539-15.539v-28.909
					c0-8.582,6.957-15.539,15.539-15.539h124.31c8.582,0,15.539,6.957,15.539,15.539v28.909
					C2093.54,2115.699,2086.583,2122.656,2078.001,2122.656z"/>
			</g>
			<g>
				<path style="fill:#000072;" d="M1889.187,2004.85h9.396c4.89,0,8.854-3.964,8.854-8.854v-42.28c0-4.89-3.964-8.854-8.854-8.854
					h-9.396c-4.89,0-8.854,3.964-8.854,8.854v42.28C1880.333,2000.886,1884.297,2004.85,1889.187,2004.85z"/>
			</g>
			<g>
				<circle style="fill:#000072;" cx="2015.846" cy="1796.399" r="42.222"/>
			</g>
			<g>
				<circle style="fill:#F9123E;" cx="2015.846" cy="1145.571" r="269.378"/>
			</g>
			<g style="opacity:0.55;">
				<path style="fill:#FFFFFF;" d="M2218.733,1318.809c34.127-45.142,54.378-101.385,54.378-162.312
					c0-148.739-120.595-269.378-269.378-269.378c-75.931,0-144.489,31.396-193.447,81.958
					c49.175-65.133,127.23-107.239,215.129-107.239c148.782,0,269.378,120.596,269.378,269.378
					C2294.794,1204.155,2265.827,1270.285,2218.733,1318.809z"/>
			</g>
			<g>
				<circle style="fill:#E2E3F2;" cx="2015.846" cy="1145.571" r="210.316"/>
				<path style="fill:#000072;" d="M2015.845,1358.278c-117.29,0-212.71-95.42-212.71-212.708s95.42-212.707,212.71-212.707
					s212.71,95.42,212.71,212.707S2133.135,1358.278,2015.845,1358.278z M2015.845,937.648
					c-114.648,0-207.925,93.274-207.925,207.922c0,114.648,93.276,207.922,207.925,207.922s207.925-93.274,207.925-207.922
					C2223.77,1030.922,2130.494,937.648,2015.845,937.648z"/>
			</g>
			<g style="opacity:0.55;">
				<path style="fill:#FFFFFF;" d="M2124.517,1325.662c-36.035,29.098-81.871,46.487-131.783,46.487
					c-116.172,0-210.316-94.187-210.316-210.316c0-76.234,40.546-142.972,101.255-179.875
					c-47.657,38.551-78.142,97.526-78.142,163.613c0,116.172,94.143,210.316,210.316,210.316
					C2055.611,1355.887,2092.817,1344.829,2124.517,1325.662z"/>
			</g>
			<g style="opacity:0.3;">
				<path style="fill:#000072;" d="M2226.162,1145.571c0,63.832-28.447,121.029-73.329,159.623
					c31.699-36.859,50.909-84.776,50.909-137.203c0-116.172-94.144-210.316-210.316-210.316c-52.427,0-100.344,19.21-137.204,50.909
					c38.594-44.882,95.791-73.329,159.623-73.329C2132.019,935.256,2226.162,1029.399,2226.162,1145.571z"/>
			</g>
			<g>
				<path style="fill:#000072;" d="M2015.845,1366.725c-121.948,0-221.157-99.209-221.157-221.155s99.209-221.155,221.157-221.155
					s221.157,99.209,221.157,221.155S2137.794,1366.725,2015.845,1366.725z M2015.845,946.096
					c-109.99,0-199.478,89.485-199.478,199.475c0,109.99,89.487,199.475,199.478,199.475s199.478-89.485,199.478-199.475
					C2215.323,1035.58,2125.836,946.096,2015.845,946.096z"/>
			</g>
			<g>
				<path style="fill:#000072;" d="M2113.876,1191.304c-2.813,16.159-13.018,34.999-43.634,41.933c0,0-35.956,8.813-49.563,30.084
					c-2.264,3.539-7.401,3.538-9.664-0.001c-13.6-21.27-49.532-30.083-49.532-30.083c-30.648-6.967-40.854-25.775-43.667-41.933
					c-2.29-12.887,1.406-26.004,8.799-36.798c16.321-23.854,20.204-50.298,6.416-80.46c-1.022-2.235-0.384-4.877,1.611-6.312
					l12.676-9.119c2.125-1.529,5.012-1.136,6.776,0.799c14.945,16.397,43.068,12.174,56.421,0.404c3.082-2.717,7.58-2.717,10.662,0
					c13.352,11.77,41.476,15.993,56.421-0.404c1.763-1.935,4.65-2.328,6.776-0.799l12.676,9.119
					c1.995,1.435,2.633,4.077,1.611,6.312c-13.787,30.162-9.905,56.606,6.417,80.46
					C2112.469,1165.3,2116.166,1178.417,2113.876,1191.304z"/>
			</g>
			<g style="opacity:0.3;">
				<path style="fill:#000072;" d="M2253.265,3219.663v102.024h-525.79v-868.929c29.004,513.187,213.414,700.59,508.274,746.402
					C2245.839,3200.728,2253.265,3209.452,2253.265,3219.663z"/>
			</g>
			<g style="opacity:0.3;">
				<path style="fill:#281A71;" d="M1643.289,1682.872v63.962c0,0-52.037,49.565-91.021,163.092l-35.082-25.411
					c3.469-9.02,7.068-17.953,10.798-26.669c1.474-0.216,2.992-0.347,4.554-0.433c83.302-5.421,62.834-119.164,62.834-119.164
					C1609.985,1718.43,1625.943,1699.913,1643.289,1682.872z"/>
				<path style="fill:#000072;" d="M1553.477,1913.759l-39.185-28.386l0.664-1.719c3.623-9.434,7.271-18.432,10.83-26.75l0.523-1.23
					l1.328-0.193c1.543-0.229,3.13-0.366,4.761-0.457c19.321-1.257,34.453-8.701,44.961-22.122
					c26.191-33.464,15.767-93.625,15.659-94.231l-0.186-1.013l0.615-0.83c14.809-20.085,31.016-38.813,48.164-55.662l4.067-3.999
					v70.688l-0.742,0.708c-0.518,0.493-52.1,50.576-90.41,162.139L1553.477,1913.759z M1520.084,1883.656l30.977,22.441
					c9.175-26.292,19.082-49.16,28.848-68.74c-11.314,13.589-27.188,21.138-47.217,22.441c-1.04,0.059-2.056,0.134-3.042,0.244
					C1526.5,1867.446,1523.287,1875.373,1520.084,1883.656z M1597.901,1738.852c1.074,6.631,6.021,41.719-4.102,72.551
					c23.154-40.366,43.057-61.47,47.095-65.564v-57.207C1625.66,1704.003,1611.217,1720.871,1597.901,1738.852z"/>
			</g>
			<g>
				<path style="fill:#000072;" d="M2015.845,876.193c148.774,0,269.38,120.605,269.38,269.377
					c0,148.774-120.605,269.377-269.38,269.377s-269.375-120.603-269.375-269.377
					C1746.47,996.799,1867.071,876.193,2015.845,876.193 M2015.845,845.839c-165.273,0-299.731,134.458-299.731,299.731
					s134.458,299.731,299.731,299.731s299.736-134.458,299.736-299.731S2181.119,845.839,2015.845,845.839L2015.845,845.839z"/>
			</g>
		</g>
	</g>
</g>
</svg>
